<svg width="24" height="24" viewBox="0 0 24 24" fill="none" xmlns="http://www.w3.org/2000/svg">
<path d="M7.48126 9.34668H2.98126V4.84668" stroke="#5F6C72" stroke-width="1.5" stroke-linecap="round" stroke-linejoin="round"/>
<path d="M17.8313 6.16885C17.0659 5.40236 16.1569 4.79429 15.1563 4.37941C14.1558 3.96453 13.0832 3.75098 12 3.75098C10.9168 3.75098 9.84427 3.96453 8.84369 4.37941C7.8431 4.79429 6.93413 5.40236 6.16876 6.16885L2.98126 9.34698" stroke="#5F6C72" stroke-width="1.5" stroke-linecap="round" stroke-linejoin="round"/>
<path d="M16.5187 14.6533H21.0187V19.1533" stroke="#5F6C72" stroke-width="1.5" stroke-linecap="round" stroke-linejoin="round"/>
<path d="M6.16876 17.8314C6.93413 18.5979 7.8431 19.206 8.84368 19.6209C9.84427 20.0358 10.9168 20.2493 12 20.2493C13.0832 20.2493 14.1558 20.0358 15.1563 19.6209C16.1569 19.206 17.0659 18.5979 17.8313 17.8314L21.0188 14.6533" stroke="#5F6C72" stroke-width="1.5" stroke-linecap="round" stroke-linejoin="round"/>
</svg>
